<svg width="30" height="30" viewBox="0 0 30 30" fill="none" xmlns="http://www.w3.org/2000/svg">
<g opacity="0.6">
<path d="M14.9998 14.1667C16.1536 14.1667 17.2814 13.8246 18.2407 13.1836C19.2 12.5426 19.9476 11.6316 20.3891 10.5657C20.8306 9.49975 20.9462 8.32687 20.7211 7.19531C20.496 6.06375 19.9404 5.02435 19.1246 4.20855C18.3088 3.39274 17.2694 2.83717 16.1379 2.61209C15.0063 2.38701 13.8334 2.50253 12.7675 2.94404C11.7016 3.38555 10.7906 4.13322 10.1496 5.09251C9.50862 6.0518 9.1665 7.17961 9.1665 8.33334C9.1665 9.88043 9.78109 11.3642 10.875 12.4581C11.969 13.5521 13.4527 14.1667 14.9998 14.1667ZM14.9998 4.16667C15.8239 4.16667 16.6295 4.41104 17.3147 4.86888C17.9999 5.32672 18.534 5.97746 18.8493 6.73882C19.1647 7.50018 19.2472 8.33796 19.0864 9.14621C18.9257 9.95447 18.5288 10.6969 17.9461 11.2796C17.3634 11.8623 16.621 12.2592 15.8127 12.4199C15.0045 12.5807 14.1667 12.4982 13.4053 12.1828C12.644 11.8675 11.9932 11.3334 11.5354 10.6482C11.0775 9.96301 10.8332 9.15742 10.8332 8.33334C10.8332 7.22827 11.2722 6.16846 12.0536 5.38706C12.835 4.60566 13.8948 4.16667 14.9998 4.16667Z" fill="black"/>
<path d="M25.3915 20.3084C24.0551 18.8959 22.4447 17.7708 20.6586 17.0019C18.8726 16.233 16.9485 15.8364 15.004 15.8364C13.0595 15.8364 11.1354 16.233 9.34939 17.0019C7.56336 17.7708 5.95292 18.8959 4.61651 20.3084C4.32677 20.6179 4.16585 21.0261 4.16651 21.4501V25.8334C4.16651 26.2754 4.3421 26.6994 4.65466 27.0119C4.96722 27.3245 5.39114 27.5001 5.83317 27.5001H24.1665C24.6085 27.5001 25.0325 27.3245 25.345 27.0119C25.6576 26.6994 25.8332 26.2754 25.8332 25.8334V21.4501C25.8361 21.0273 25.6782 20.6192 25.3915 20.3084ZM24.1665 25.8334H5.83317V21.4417C7.0142 20.1981 8.43591 19.2079 10.0118 18.5312C11.5877 17.8544 13.2848 17.5055 14.9998 17.5055C16.7149 17.5055 18.412 17.8544 19.9879 18.5312C21.5638 19.2079 22.9855 20.1981 24.1665 21.4417V25.8334Z" fill="black"/>
</g>
</svg>
